# xmcd
#
# Track frame offsets: 
#        150
#        23166
#        43884
#        64937
#        89812
#        108398
#        124373
#        145876
#        164275
#        184777
#        208342
#        227700
#        253665
#        268940
#        287003
#
# Disc length: 4048 seconds
#
# Revision: 1
# Processed by: cddbd v1.5.2PL0 Copyright (c) Steve Scherf et al.
# Submitted via: ExactAudioCopy v0.95b3
#
DISCID=ef0fce0f
DTITLE=Cash Box Kings - Black Night Fallin'
DYEAR=2005
DGENRE=Blues
TTITLE0=Sarah
TTITLE1=Lost Sheep Blues
TTITLE2=Shur Fine Woman
TTITLE3=Fall Asleep and Cry
TTITLE4=Roll Steady
TTITLE5=Blues Through the Wintertime
TTITLE6=Baby Dropped an Axe on Me
TTITLE7=Baby Without You
TTITLE8='48' Blues
TTITLE9=Now I'm Free
TTITLE10=Juju
TTITLE11=Pick Up the Pieces
TTITLE12=Horizon Blues
TTITLE13=My Variety
TTITLE14=Sugar Pea
EXTD=
EXTT0=
EXTT1=
EXTT2=
EXTT3=
EXTT4=
EXTT5=
EXTT6=
EXTT7=
EXTT8=
EXTT9=
EXTT10=
EXTT11=
EXTT12=
EXTT13=
EXTT14=
PLAYORDER=
